<?xml version="1.0" encoding="UTF-8"?>
<svg version="1.1" xmlns="http://www.w3.org/2000/svg" width="512" height="512">
<path d="M0 0 C1.53234146 1.32009146 3.05343135 2.65336582 4.5625 4 C5.7690625 4.99386719 5.7690625 4.99386719 7 6.0078125 C20.36821982 17.32902366 30.09249137 31.95613895 36.3125 48.25 C36.59448242 48.97533936 36.87646484 49.70067871 37.16699219 50.44799805 C43.36174698 67.5390823 42.93351416 84.56177904 42.75 102.5 C42.73492237 105.07681507 42.72123943 107.65363871 42.70898438 110.23046875 C42.67623149 116.48716866 42.62627745 122.74354338 42.5625 129 C43.27945038 128.99111755 43.99640076 128.98223511 44.7350769 128.9730835 C51.53072749 128.89254225 58.32630565 128.83183628 65.12231255 128.79275131 C68.61527947 128.77198073 72.10784814 128.74385994 75.60058594 128.69824219 C79.62698939 128.64599054 83.65298227 128.62696802 87.6796875 128.609375 C88.91862762 128.58872986 90.15756775 128.56808472 91.43405151 128.54681396 C101.69356851 128.54418819 110.14759543 130.61087172 117.73828125 137.83203125 C128.58268547 150.71992064 126.70600252 165.88479969 125.36254883 181.5559082 C125.22059674 183.29679911 125.0794764 185.037758 124.93911743 186.77877808 C124.5577139 191.47601796 124.16376028 196.17212336 123.76668382 200.8680613 C123.43501299 204.80367747 123.10943391 208.73978838 122.78377551 212.67590588 C122.01459708 221.97082863 121.23506982 231.26484342 120.44897461 240.55834961 C119.64118789 250.11039922 118.85062959 259.66376332 118.06863195 269.21795589 C117.39401998 277.45275056 116.70872948 285.68660992 116.01501864 293.91981763 C115.6019855 298.82299527 115.19282211 303.72641242 114.79392433 308.6307621 C114.41795927 313.24728389 114.02853549 317.86248596 113.62924576 322.47704697 C113.48590116 324.15870729 113.34707218 325.84076046 113.21341133 327.52321815 C112.15132448 340.83656482 110.26089069 354.11616304 104 366.125 C103.66194336 366.78185791 103.32388672 367.43871582 102.97558594 368.11547852 C93.95949362 384.85185257 78.96216244 397.15351167 60.94140625 403.21875 C52.10067604 405.83822562 43.81539525 407.15027908 34.62145996 407.14044189 C33.74401516 407.14341302 32.86657037 407.14638414 31.96253633 407.1494453 C29.03425923 407.15808859 26.10602321 407.15963685 23.17773438 407.16113281 C21.072987 407.16576417 18.96824045 407.17078926 16.86349487 407.17617798 C11.15234088 407.18927548 5.44119863 407.19574205 -0.26996803 407.20018864 C-3.84293906 407.20312433 -7.41590692 407.20723013 -10.98887634 407.21169281 C-22.18178304 407.22536229 -33.37468245 407.23503099 -44.56759691 407.2388947 C-57.46171849 407.24337078 -70.35573381 407.26090017 -83.24982309 407.2898953 C-93.23313311 407.3115607 -103.21641335 407.32160161 -113.19974661 407.32293582 C-119.15426823 407.32398059 -125.1086899 407.32981816 -131.06318665 407.34775543 C-136.67091943 407.36431969 -142.27847802 407.36635127 -147.88622665 407.35761642 C-149.93433476 407.35685044 -151.98245255 407.36113024 -154.03053665 407.37107468 C-175.80633712 407.47052997 -194.49131584 404.38842311 -212.4375 391 C-213.15550781 390.46761719 -213.87351563 389.93523437 -214.61328125 389.38671875 C-230.60595774 376.47078964 -239.02802348 356.74636446 -241.27906191 336.6735388 C-241.65967597 332.80437581 -241.97653751 328.93143136 -242.28442383 325.0559082 C-242.43328373 323.30954449 -242.58331238 321.56328007 -242.73440552 319.81710815 C-243.13711415 315.12204787 -243.52292842 310.42574581 -243.9049437 305.72896218 C-244.30912657 300.78913712 -244.72734413 295.85049676 -245.14347839 290.91166687 C-245.83946964 282.62539345 -246.52454096 274.33827305 -247.20288086 266.05053711 C-247.98516973 256.49428581 -248.7842181 246.93954922 -249.59235555 237.38545161 C-250.37268349 228.15607658 -251.1416853 218.92579175 -251.90540123 209.69502831 C-252.22921482 205.78316126 -252.55682376 201.87164025 -252.88755226 197.96035194 C-253.27678877 193.35053913 -253.6560057 188.74000439 -254.02775955 184.12874985 C-254.16504042 182.4451465 -254.30562545 180.7618085 -254.4499073 179.07879066 C-255.72892891 164.11526002 -256.89463835 150.0507747 -246.61328125 137.83203125 C-237.87029141 129.51466364 -228.18272298 128.41561064 -216.5546875 128.609375 C-215.25927032 128.61503479 -213.96385315 128.62069458 -212.62918091 128.62652588 C-209.21935981 128.64164893 -205.81024267 128.68081058 -202.4006958 128.7253418 C-198.90785235 128.76658661 -195.41489285 128.78459857 -191.921875 128.8046875 C-185.09346458 128.84732188 -178.26551627 128.9154063 -171.4375 129 C-171.44749275 128.01972839 -171.44749275 128.01972839 -171.45768738 127.01965332 C-171.52471062 120.13994328 -171.56957477 113.26032785 -171.60229492 106.38037109 C-171.61726425 103.82206446 -171.63764693 101.26378296 -171.66381836 98.70556641 C-171.83809881 81.21601096 -171.66562992 64.96982221 -165.3125 48.4375 C-165.0124707 47.64649902 -164.71244141 46.85549805 -164.40332031 46.04052734 C-153.65066482 18.79717849 -131.79220742 -1.89069109 -105.15625 -13.5 C-71.40407382 -27.49308971 -28.95634343 -22.73844523 0 0 Z M-124.00585938 25.42529297 C-138.85930182 40.15356596 -146.51681004 58.55517028 -149.4375 79 C-149.4375 95.5 -149.4375 112 -149.4375 129 C-93.3375 129 -37.2375 129 20.5625 129 C21.98496555 70.34873388 21.98496555 70.34873388 -5.7109375 24.62109375 C-16.19761612 14.60474789 -28.60316607 8.08820092 -42.4375 4 C-43.61699219 3.65001953 -43.61699219 3.65001953 -44.8203125 3.29296875 C-73.06402444 -3.95034483 -103.23661905 5.68207799 -124.00585938 25.42529297 Z M-230.4375 154 C-235.89132141 162.18073212 -232.0169388 178.07657955 -231.19995117 187.72900391 C-231.06642549 189.35686 -230.93337788 190.98475537 -230.80076599 192.61268616 C-230.44248938 196.99109459 -230.07687459 201.36885927 -229.70928741 205.74649477 C-229.40167065 209.41671376 -229.09742091 213.08720909 -228.79304963 216.75769842 C-228.0744531 225.42128497 -227.34954544 234.08432785 -226.62084961 242.74707031 C-225.87171855 251.65430425 -225.13422677 260.56244931 -224.40227526 269.47110999 C-223.77073456 277.15194884 -223.13147957 284.83212021 -222.48622686 292.51181924 C-222.10211824 297.08466622 -221.72095119 301.65770859 -221.34743309 306.23143387 C-220.99595212 310.53165732 -220.63478883 314.83096343 -220.26644325 319.12977409 C-220.13363383 320.69831291 -220.0041348 322.26713649 -219.87837219 323.83625603 C-218.32150316 343.19947488 -214.28783 359.81389306 -199.0546875 373.07421875 C-182.83333392 385.09679753 -164.83115215 385.30386837 -145.52734375 385.25878906 C-143.55787019 385.26150477 -141.58839765 385.26506894 -139.618927 385.26940918 C-134.30904232 385.27846651 -128.99923604 385.27501658 -123.68935013 385.26865101 C-118.10922295 385.26355634 -112.52910208 385.26829204 -106.94897461 385.27142334 C-97.58153082 385.27505293 -88.21411866 385.27029038 -78.84667969 385.26074219 C-68.04598042 385.2498596 -57.24535668 385.25338589 -46.44465923 385.264395 C-37.13977001 385.27349663 -27.83490341 385.27473912 -18.53001118 385.26951766 C-12.98645606 385.26641374 -7.44293633 385.26594494 -1.89938354 385.27259064 C3.31444934 385.27840546 8.52818566 385.27429214 13.74200821 385.26280212 C15.64540574 385.26017753 17.54881151 385.26088254 19.45220566 385.26532745 C39.66296435 385.30814148 57.63172543 383.99457274 73.5625 370 C86.87923281 356.11514719 89.70154194 340.07897927 91.18823242 321.52978516 C91.32577373 319.90536058 91.46417015 318.28100822 91.60334778 316.65672302 C91.97586709 312.2792578 92.3360974 307.90086294 92.69368911 303.52215624 C93.07158397 298.9170924 93.45989855 294.31290559 93.84675598 289.70858765 C94.49474563 281.97750413 95.13497744 274.24580905 95.77026367 266.51367188 C96.502197 257.60607371 97.2451452 248.69944876 97.99431723 239.79328501 C98.71804278 231.18778872 99.4350966 222.5817499 100.14876747 213.97541428 C100.45106106 210.33049724 100.75541779 206.6857615 101.06145287 203.04115677 C101.42232046 198.73888314 101.77722545 194.43615548 102.12775993 190.13302803 C102.25638821 188.56487788 102.38691844 186.99688223 102.51961899 185.42907143 C104.92965541 169.78590855 104.92965541 169.78590855 102.52495098 155.06412697 C100.1364159 152.60562804 97.66919741 151.06122716 94.25518292 150.8723495 C93.28049316 150.871103 92.30580339 150.86985651 91.30157757 150.86857224 C90.17902559 150.86473109 89.05647361 150.86088995 87.89990491 150.8569324 C86.0344313 150.85823213 86.0344313 150.85823213 84.13127136 150.85955811 C82.81818648 150.85658698 81.5051016 150.85361586 80.15222627 150.8505547 C76.49508737 150.84246568 72.83796808 150.84069408 69.1808213 150.83995724 C65.24138667 150.83810998 61.30196229 150.8305643 57.36253357 150.82382202 C48.74275788 150.81022462 40.12298683 150.80421178 31.5032022 150.79981136 C26.12374443 150.79705129 20.74428847 150.79281436 15.36483192 150.78830719 C0.47873516 150.77611263 -14.40736015 150.76581372 -29.2934618 150.7624321 C-30.24670457 150.76221253 -31.19994734 150.76199297 -32.18207626 150.76176675 C-33.13763601 150.76154847 -34.09319577 150.76133019 -35.07771188 150.7611053 C-37.01412888 150.76066183 -38.95054589 150.76021527 -40.88696289 150.75976562 C-41.84749829 150.7595442 -42.80803369 150.75932277 -43.79767623 150.75909463 C-59.36558858 150.75514571 -74.93345414 150.73768966 -90.50134841 150.7144061 C-106.47416303 150.69070923 -122.44695415 150.67823101 -138.41978663 150.67706418 C-147.39218135 150.67614647 -156.36451512 150.67037022 -165.33689308 150.65224457 C-172.97651523 150.63686601 -180.6160576 150.6317098 -188.25569228 150.63998267 C-192.15502381 150.64389719 -196.05419458 150.64292074 -199.95350647 150.62892532 C-204.17756139 150.61390272 -208.40125194 150.62202912 -212.62532043 150.63250732 C-213.86227734 150.62445092 -215.09923424 150.61639452 -216.37367469 150.60809398 C-217.50404991 150.61468382 -218.63442513 150.62127367 -219.79905415 150.6280632 C-221.26181938 150.62716757 -221.26181938 150.62716757 -222.75413543 150.62625384 C-225.97432579 151.07477052 -227.8256404 152.08729951 -230.4375 154 Z " fill="#000000" transform="translate(320.4375,63)"/>
<path d="M0 0 C1.06992187 0.474375 2.13984375 0.94875 3.2421875 1.4375 C20.63447865 9.9494919 31.15347403 24.0438562 37.75 42.046875 C39.50539887 47.94696566 39.13878605 53.89341361 39 60 C31.74 60 24.48 60 17 60 C16.4121875 56.844375 16.4121875 56.844375 15.8125 53.625 C13.41546101 42.56517359 8.94358808 33.15508812 -0.3203125 26.27734375 C-11.14758121 19.37029302 -22.50089757 17.05857761 -35.2109375 19.65625 C-46.24315469 22.94606284 -54.94138774 29.16081369 -61 39 C-64.4810846 45.73300689 -65.85379999 52.54969991 -67 60 C-74.26 60 -81.52 60 -89 60 C-89.81048892 43.18235481 -84.00757545 28.18084245 -72.75 15.625 C-54.97361314 -3.3034752 -24.07229568 -11.0194705 0 0 Z " fill="#000000" transform="translate(281,324)"/>
<path d="M0 0 C3.41184222 1.92303834 5.42958014 3.34059677 6.73046875 7.125 C7.45831649 11.39119664 7.24894229 13.51100621 5.25 17.4375 C2.23973341 20.86585918 0.77904184 21.92337293 -3.8125 22.375 C-8.13336588 22.27933507 -10.66081493 20.7690803 -14 18 C-15.85726616 14.28546768 -15.58501089 10.04420575 -15 6 C-10.79638574 0.57955004 -6.7992423 -1.07223673 0 0 Z " fill="#000000" transform="translate(335,277)"/>
<path d="M0 0 C5.5 3 5.5 3 7 6 C7.64507919 11.20671061 7.9173523 14.81709835 4.625 19.0625 C0.48450052 22.11858295 -2.90242097 22.71424812 -8 22 C-11.4431146 19.90419111 -13.7468218 17.8734599 -15 14 C-15.52055293 10.00909419 -15.16996586 8.30476637 -13.1875 4.75 C-9.40390193 -0.00652328 -5.87026018 -0.93038086 0 0 Z " fill="#000000" transform="translate(185,277)"/>
</svg>
