<?xml version="1.0" standalone="no"?>
<!DOCTYPE svg PUBLIC "-//W3C//DTD SVG 20010904//EN"
 "http://www.w3.org/TR/2001/REC-SVG-20010904/DTD/svg10.dtd">
<svg version="1.0" xmlns="http://www.w3.org/2000/svg"
 width="300.000000pt" height="300.000000pt" viewBox="0 0 1024.000000 1024.000000"
 preserveAspectRatio="xMidYMid meet">

<g transform="translate(0.000000,1024.000000) scale(0.100000,-0.100000)"
fill="#ffffff" stroke="none">
<path d="M4967 8069 c-324 -22 -650 -122 -935 -286 -582 -334 -977 -904 -1088
-1572 -20 -121 -29 -419 -16 -506 15 -91 61 -183 125 -248 252 -253 672 -138
762 210 10 37 15 104 15 188 0 157 20 284 65 422 48 144 101 243 193 358 181
228 369 367 612 453 157 55 235 67 445 66 174 -1 199 -4 295 -29 376 -99 673
-339 843 -680 54 -109 102 -255 85 -255 -22 0 -2854 -958 -2883 -974 -61 -36
-142 -128 -175 -198 -42 -91 -55 -186 -36 -275 28 -137 98 -238 310 -448 353
-351 765 -556 1256 -624 124 -17 311 -23 384 -12 128 19 246 95 317 204 55 85
72 152 67 268 -3 87 -7 104 -40 171 -83 167 -236 258 -435 258 -78 0 -233 19
-313 39 -79 19 -150 45 -147 55 2 5 540 189 1196 407 655 219 1212 409 1236
424 65 38 141 120 175 189 48 97 56 162 42 344 -25 325 -92 572 -227 842 -401
799 -1230 1271 -2128 1209z"/>
<path d="M546 3099 c-186 -64 -285 -225 -286 -461 0 -107 13 -175 51 -254 74
-158 261 -245 459 -216 91 14 163 48 223 109 42 42 97 134 97 162 0 12 -19 18
-91 26 l-56 6 -18 -41 c-59 -131 -222 -188 -351 -122 -88 45 -152 149 -157
254 l-2 43 343 3 342 2 0 63 c0 74 -22 172 -51 229 -28 55 -114 145 -163 170
-103 53 -235 63 -340 27z m225 -111 c77 -22 147 -103 164 -188 3 -19 9 -43 11
-52 5 -17 -12 -18 -260 -18 -301 0 -279 -8 -251 86 41 137 193 215 336 172z"/>
<path d="M2137 3100 c-163 -52 -249 -167 -279 -374 -21 -147 14 -315 86 -409
79 -104 181 -151 326 -151 86 -1 102 3 162 31 75 35 139 95 173 163 28 56 47
122 37 131 -4 4 -37 9 -74 13 -66 6 -68 6 -68 -16 0 -34 -44 -119 -76 -150
-114 -107 -319 -58 -383 92 -49 114 -47 329 4 430 55 109 166 159 294 134 46
-9 116 -76 137 -130 l18 -46 60 7 c34 3 65 10 70 15 12 12 -20 99 -52 141 -31
41 -74 79 -112 99 -80 42 -226 51 -323 20z"/>
<path d="M3026 3100 c-145 -46 -246 -164 -276 -320 -13 -70 -13 -216 1 -282
47 -227 248 -364 481 -330 174 26 299 137 344 305 17 63 19 259 4 319 -42 163
-132 263 -281 309 -79 25 -194 24 -273 -1z m260 -128 c50 -26 100 -81 128
-141 32 -71 35 -256 6 -352 -74 -246 -390 -270 -495 -37 -24 53 -29 80 -33
168 -9 204 52 326 185 376 52 20 157 13 209 -14z"/>
<path d="M4108 3106 c-58 -21 -126 -65 -150 -96 -12 -17 -25 -30 -30 -30 -4 0
-8 27 -8 60 l0 60 -65 0 -65 0 0 -460 0 -460 75 0 75 0 0 290 c0 166 5 310 11
339 25 119 102 181 222 181 85 0 125 -26 149 -95 15 -43 17 -96 18 -382 l0
-333 74 0 75 0 3 323 c3 321 3 322 28 372 17 35 40 60 74 83 43 28 56 32 118
32 54 0 79 -5 105 -21 67 -42 68 -45 71 -436 l3 -353 75 0 76 0 -4 368 c-3
358 -4 368 -26 417 -47 101 -114 146 -232 153 -106 6 -175 -21 -254 -100 -43
-42 -62 -55 -68 -46 -4 7 -8 16 -8 20 0 5 -16 26 -36 48 -64 70 -207 101 -306
66z"/>
<path d="M5590 3103 c-53 -18 -124 -67 -145 -100 -25 -37 -35 -27 -35 37 l0
60 -65 0 -65 0 0 -460 0 -460 74 0 75 0 3 318 3 317 28 58 c23 47 38 63 80 87
69 39 165 43 218 7 64 -43 68 -69 68 -449 l1 -338 75 0 75 0 0 310 c0 285 2
313 20 363 35 92 102 137 207 137 71 0 120 -24 148 -71 19 -32 20 -55 23 -386
l3 -353 75 0 76 0 -4 368 c-3 358 -4 368 -26 417 -47 101 -134 155 -252 155
-91 0 -164 -32 -234 -102 -43 -42 -62 -55 -68 -46 -4 7 -8 16 -8 20 0 5 -16
26 -36 48 -66 73 -206 101 -314 63z"/>
<path d="M7006 3100 c-186 -66 -285 -226 -286 -461 0 -150 36 -261 111 -344
144 -156 422 -179 593 -48 49 38 110 125 121 175 7 29 4 30 -95 43 l-45 6 -29
-56 c-125 -242 -486 -136 -499 147 l-2 43 343 3 342 2 0 63 c-1 187 -90 341
-240 411 -88 41 -223 48 -314 16z m228 -111 c46 -13 118 -76 141 -125 9 -19
20 -57 24 -84 l8 -50 -263 0 c-299 0 -277 -8 -249 86 41 137 191 214 339 173z"/>
<path d="M8025 3102 c-35 -22 -92 -85 -107 -118 -17 -37 -28 -18 -28 52 l0 64
-65 0 -65 0 0 -460 0 -460 75 0 75 0 0 263 c0 273 8 363 40 434 38 86 136 114
241 69 14 -6 21 5 39 59 12 36 20 68 19 69 -47 41 -178 58 -224 28z"/>
<path d="M8596 3100 c-164 -52 -253 -175 -276 -382 -24 -211 34 -381 163 -478
73 -55 136 -74 247 -74 82 0 103 3 154 27 84 39 138 86 173 154 35 65 56 134
45 144 -4 3 -35 9 -70 13 -46 4 -64 2 -66 -7 -32 -112 -81 -177 -153 -201
-126 -43 -260 14 -311 131 -48 113 -48 313 0 426 26 60 93 120 153 137 64 18
156 8 197 -21 45 -32 65 -57 84 -108 l18 -43 60 7 c34 3 65 10 69 14 29 28
-61 179 -134 224 -94 58 -240 73 -353 37z"/>
<path d="M9496 3100 c-128 -41 -223 -140 -267 -279 -31 -96 -31 -280 0 -371
57 -169 180 -266 361 -285 203 -21 391 90 444 262 7 23 2 25 -96 39 l-47 6
-25 -50 c-59 -117 -180 -167 -310 -128 -112 34 -196 152 -196 279 l0 37 345 0
345 0 0 48 c-1 168 -85 336 -203 405 -99 58 -240 73 -351 37z m252 -126 c29
-14 65 -41 81 -61 30 -36 61 -118 61 -159 l0 -24 -259 0 c-143 0 -262 3 -264
8 -9 14 24 118 50 155 71 103 217 138 331 81z"/>
<path d="M1247 2714 c-4 -4 -7 -38 -7 -76 l0 -68 240 0 241 0 -3 73 -3 72
-231 3 c-127 1 -233 -1 -237 -4z"/>
</g>
</svg>
