<?xml version="1.0" standalone="no"?>
<!DOCTYPE svg PUBLIC "-//W3C//DTD SVG 20010904//EN"
 "http://www.w3.org/TR/2001/REC-SVG-20010904/DTD/svg10.dtd">
<svg version="1.0" xmlns="http://www.w3.org/2000/svg"
 width="1000.000000pt" height="956.000000pt" viewBox="0 0 1000.000000 956.000000"
 preserveAspectRatio="xMidYMid meet">

<g transform="translate(0.000000,956.000000) scale(0.100000,-0.100000)"
fill="#000000" stroke="none">
<path d="M2433 6675 c-32 -22 -47 -77 -33 -119 21 -64 30 -66 320 -66 157 0
279 -4 305 -11 59 -15 117 -67 144 -129 12 -28 37 -117 56 -198 31 -137 106
-447 465 -1945 77 -323 149 -611 160 -641 58 -154 183 -259 341 -286 44 -7
343 -10 967 -8 l904 3 24 28 c26 31 33 92 13 129 -26 48 -16 48 -979 48 -977
0 -930 -3 -1005 54 -17 13 -42 46 -57 72 -28 51 -22 29 -462 1869 -233 971
-240 996 -326 1089 -49 53 -140 101 -219 116 -29 5 -176 10 -325 10 -225 0
-275 -3 -293 -15z"/>
<path d="M3925 6235 c-58 -21 -112 -82 -120 -137 -7 -45 -7 -43 240 -1148 24
-107 87 -400 140 -650 53 -250 103 -467 111 -481 22 -44 83 -87 139 -99 34 -7
329 -10 895 -8 799 3 847 4 875 21 44 27 55 46 134 232 40 94 77 175 84 181 7
6 53 19 102 29 306 59 625 203 888 401 146 110 206 169 190 185 -15 15 -20 12
-133 -71 -690 -506 -1646 -541 -2331 -84 -215 143 -423 354 -573 579 -186 279
-315 604 -380 955 -10 53 -23 90 -33 98 -23 17 -177 15 -228 -3z"/>
<path d="M4730 3070 c-12 -8 -11 -12 7 -32 35 -37 53 -92 53 -160 0 -72 -21
-126 -70 -181 l-32 -37 27 -10 c44 -17 132 -12 173 9 79 41 124 114 124 201 0
91 -52 170 -134 204 -41 18 -125 21 -148 6z"/>
<path d="M5573 3074 c-8 -4 -2 -20 17 -48 73 -108 63 -234 -27 -327 l-34 -36
30 -13 c19 -7 57 -11 96 -8 122 8 200 93 200 219 0 89 -37 151 -114 191 -51
27 -130 37 -168 22z"/>
<path d="M2040 2070 l0 -180 100 0 c93 0 100 1 100 20 0 18 -7 20 -79 20 l-79
0 2 63 1 62 68 3 c55 2 67 6 67 20 0 14 -11 17 -68 17 l-67 0 0 55 0 55 73 3
c64 3 72 5 72 22 0 18 -7 20 -95 20 l-95 0 0 -180z"/>
<path d="M3195 2236 c-60 -26 -105 -103 -105 -181 0 -45 40 -116 79 -142 27
-18 48 -23 100 -23 66 0 103 12 87 27 -4 4 -35 8 -69 8 -99 1 -147 48 -147
145 0 98 80 161 174 140 27 -6 36 -4 41 8 3 8 0 19 -7 24 -20 12 -120 9 -153
-6z"/>
<path d="M3810 2231 c-65 -34 -102 -138 -80 -221 6 -23 26 -58 44 -78 31 -33
39 -36 97 -40 55 -3 69 0 98 20 54 36 76 82 76 158 0 76 -22 122 -75 157 -41
29 -111 30 -160 4z m138 -37 c30 -20 52 -72 52 -124 0 -90 -55 -156 -123 -147
-92 12 -134 121 -87 225 31 68 95 86 158 46z"/>
<path d="M4447 2198 c-3 -29 -9 -110 -13 -180 -7 -124 -6 -128 13 -128 20 0
21 9 29 153 l9 152 49 -152 c38 -118 54 -153 67 -153 12 0 28 33 63 133 26 72
51 141 55 152 5 12 11 -37 16 -132 7 -150 8 -153 30 -153 21 0 22 3 18 63 -2
34 -7 114 -11 177 l-7 115 -29 0 c-29 0 -31 -3 -81 -143 l-51 -142 -38 112
c-54 165 -61 178 -89 178 -22 0 -25 -5 -30 -52z"/>
<path d="M5197 2198 c-3 -29 -9 -110 -13 -180 -7 -124 -6 -128 13 -128 20 0
21 9 29 152 l9 153 50 -150 c34 -103 55 -151 66 -153 12 -2 27 28 62 125 25
70 49 139 54 153 9 29 19 -68 22 -202 1 -75 2 -78 25 -78 23 0 23 2 19 68 -2
37 -7 117 -11 177 l-7 110 -28 0 c-27 0 -31 -6 -63 -90 -19 -49 -42 -115 -51
-145 l-16 -55 -50 148 c-48 140 -52 147 -78 147 -24 0 -27 -4 -32 -52z"/>
<path d="M5935 2237 c-3 -7 -4 -87 -3 -177 l3 -165 98 -3 c92 -3 97 -2 97 18
0 18 -6 20 -75 20 l-75 0 0 65 0 65 71 0 c60 0 70 2 67 16 -2 13 -16 17 -70
16 l-68 0 0 59 0 58 73 3 c56 2 72 6 72 18 0 21 -183 28 -190 7z"/>
<path d="M6533 2244 c-10 -4 -13 -50 -13 -180 0 -166 1 -174 20 -174 17 0 19
8 22 78 l3 77 39 -1 c50 -2 68 -23 85 -98 11 -49 16 -56 36 -56 l24 0 -18 65
c-10 36 -27 75 -37 86 -17 19 -18 21 -1 30 21 12 47 61 47 88 0 12 -13 35 -29
53 -26 30 -34 32 -97 35 -38 1 -75 0 -81 -3z m140 -52 c23 -20 22 -67 -3 -92
-14 -14 -33 -20 -65 -20 l-45 0 0 64 c0 59 2 65 23 68 34 5 70 -3 90 -20z"/>
<path d="M7200 2227 c-115 -61 -122 -253 -10 -316 32 -18 52 -21 107 -19 60 3
68 5 71 24 3 20 1 20 -46 11 -41 -9 -55 -7 -87 9 -57 28 -78 62 -78 126 0 65
23 112 64 133 33 17 91 23 125 11 16 -5 23 -2 27 13 6 23 -15 31 -84 31 -29 0
-62 -9 -89 -23z"/>
<path d="M7760 2070 l0 -180 100 0 c93 0 100 1 100 20 0 18 -7 20 -80 20 l-81
0 3 63 3 62 68 3 c55 2 67 6 67 20 0 14 -11 17 -68 17 l-67 0 0 55 0 55 73 3
c64 3 72 5 72 22 0 18 -7 20 -95 20 l-95 0 0 -180z"/>
<path d="M2600 2035 c0 -12 14 -15 65 -15 51 0 65 3 65 15 0 12 -14 15 -65 15
-51 0 -65 -3 -65 -15z"/>
</g>
</svg>
